<?xml version="1.0" encoding="UTF-8"?>
<svg id="Capa_2" data-name="Capa 2" xmlns="http://www.w3.org/2000/svg" viewBox="0 0 156.55 135.58">
  <defs>
    <style>
      .cls-1 {
        fill: #f37806;
      }

      .cls-2 {
        fill: #4d97b2;
      }
    </style>
  </defs>
  <g id="Capa_4_copia_4" data-name="Capa 4 copia 4">
    <g>
      <g>
        <polygon class="cls-1" points="83.56 99.2 84.48 100.8 72.07 100.8 77.35 91.65 73.43 84.86 60.31 107.59 96.25 107.59 91.4 99.2 83.56 99.2"/>
        <polygon class="cls-1" points="68 90.55 66.15 90.55 72.36 79.81 77.65 88.96 85.48 88.96 72.36 66.22 54.39 97.35 64.08 97.35 68 90.55"/>
        <polygon class="cls-1" points="84.19 79.81 90.4 90.55 79.83 90.55 75.91 97.35 102.16 97.35 84.19 66.22 79.35 74.61 83.27 81.4 84.19 79.81"/>
      </g>
      <path class="cls-2" d="M147.29,119.54h-49.39s-1.97-3.42-1.97-3.42h26.9l-13.45-23.3h3.95l14.43,24.99h18.53l-23.26-40.29h-22.48l11.24-19.47L78.28,0l-9.26,16.04,24.69,42.77-1.98,3.42-13.45-23.3-13.45,23.3-1.98-3.42,14.43-24.99-9.26-16.04-23.26,40.29,11.24,19.47h-22.48L0,135.58h18.53l24.69-42.76h3.95l-13.45,23.3h26.9l-1.97,3.41h0s-28.86.01-28.86.01l-9.26,16.04h46.52l11.24-19.47,11.24,19.47h67.04l-9.26-16.04ZM42.57,111l35.71-61.85,35.71,61.85H42.57Z"/>
    </g>
  </g>
</svg>